<svg xmlns="http://www.w3.org/2000/svg" width="163.13131713867188" height="244.0346221923828" viewBox="-1.9304122924804688 -21.1603946685791 163.13131713867188 244.0346221923828"><title>Neo4j Graph Visualization</title><desc>Created using Neo4j (http://www.neo4j.com/)</desc><g class="layer relationships"><g class="relationship" transform="translate(132.20091836148467 7.839604929993911) rotate(522.2659615909834)"><path class="outline" fill="#A5ABB6" stroke="none" d="M 21.40063509461097,12.933012701892217 L 21.90063509461097,12.06698729810778 A 60.03793784867903 60.03793784867903 0 0 0 40.551543512536966,19.02446270558915 L 40.36219556166187,20.006372759259754 A 61.03793784867903 61.03793784867903 0 0 1 21.40063509461097,12.933012701892217 Z M 59.7658634629011,20.604137479452312 L 59.637316206547155,19.612434094924524 A 60.03793784867903 60.03793784867903 0 0 0 78.6811251061357,13.816211923930597 L 77.34389457926606,11.130729747857192 L 85.17012193811858,11.143587723913672 L 80.46409914196188,17.396854825361803 L 79.12686861509225,14.711372649288398 A 61.03793784867903 61.03793784867903 0 0 1 59.7658634629011,20.604137479452312"/><text text-anchor="middle" pointer-events="none" font-size="8px" fill="#000000" x="50.05550884479827" y="23.58183919425432" transform="rotate(180 50.05550884479827 20.58183919425432)" font-family="sans-serif">trek</text></g><g class="relationship" transform="translate(29.76243894915566 40.59896185179889) rotate(451.44697389967473)"><path class="outline" fill="#A5ABB6" stroke="none" d="M 25 0.5 L 40.15208685945566 0.5 L 40.15208685945566 -0.5 L 25 -0.5 Z M 59.48802435945566 0.5 L 74.64011121891131 0.5 L 74.64011121891131 3.5 L 81.64011121891131 0 L 74.64011121891131 -3.5 L 74.64011121891131 -0.5 L 59.48802435945566 -0.5 Z"/><text text-anchor="middle" pointer-events="none" font-size="8px" fill="#000000" x="49.82005560945566" y="3" transform="rotate(180 49.82005560945566 0)" font-family="sans-serif">trek</text></g><g class="relationship" transform="translate(27.069586926319726 147.20506800320507) rotate(385.787709451046)"><path class="outline" fill="#A5ABB6" stroke="none" d="M 25 0.5 L 40.47006146252496 0.5 L 40.47006146252496 -0.5 L 25 -0.5 Z M 59.80599896252496 0.5 L 75.27606042504992 0.5 L 75.27606042504992 3.5 L 82.27606042504992 0 L 75.27606042504992 -3.5 L 75.27606042504992 -0.5 L 59.80599896252496 -0.5 Z"/><text text-anchor="middle" pointer-events="none" font-size="8px" fill="#000000" x="50.13803021252496" y="3" font-family="sans-serif">trek</text></g><g class="relationship" transform="translate(132.20091836148467 7.839604929993911) rotate(522.2659615909834)"><path class="outline" fill="#A5ABB6" stroke="none" d="M 25 0.5 L 39.26871066103182 0.5 L 39.26871066103182 -0.5 L 25 -0.5 Z M 61.28042941103182 0.5 L 75.54914007206364 0.5 L 75.54914007206364 3.5 L 82.54914007206364 0 L 75.54914007206364 -3.5 L 75.54914007206364 -0.5 L 61.28042941103182 -0.5 Z"/><text text-anchor="middle" pointer-events="none" font-size="8px" fill="#000000" x="50.27457003603182" y="3" transform="rotate(180 50.27457003603182 0)" font-family="sans-serif">road</text></g><g class="relationship" transform="translate(132.20091836148467 7.839604929993911) rotate(522.2659615909834)"><path class="outline" fill="#A5ABB6" stroke="none" d="M 21.40063509461097,-12.933012701892217 L 21.90063509461097,-12.06698729810778 A 60.03793784867903 60.03793784867903 0 0 1 23.51423646900203,-12.965793459972431 L 23.041112831385725,-13.846789500558721 A 61.03793784867903 61.03793784867903 0 0 0 21.40063509461097,-12.933012701892217 Z M 77.4332540665938,-15.522436767437682 L 77.01525747386987,-14.613988173145643 A 60.03793784867903 60.03793784867903 0 0 1 78.6811251061357,-13.816211923930597 L 77.34389457926606,-11.130729747857192 L 85.17012193811858,-11.143587723913672 L 80.46409914196188,-17.396854825361803 L 79.12686861509225,-14.711372649288398 A 61.03793784867903 61.03793784867903 0 0 0 77.4332540665938,-15.522436767437682"/><text text-anchor="middle" pointer-events="none" font-size="8px" fill="#000000" x="50.05550884479825" y="-17.58183919425432" transform="rotate(180 50.05550884479825 -20.58183919425432)" font-family="sans-serif">PublicTrans…</text></g></g><g class="layer nodes"><g class="node" transform="translate(132.20091836148467,7.839604929993911)"><circle class="outline" cx="0" cy="0" r="25" fill="#F79767" stroke="#f36924" stroke-width="2px"/><text text-anchor="middle" pointer-events="none" font-family="sans-serif" dy="1.5625" font-size="25" fill="#FFFFFF"/><text text-anchor="middle" pointer-events="none" x="0" y="5" font-size="10px" fill="#FFFFFF" font-family="sans-serif"> Darjeeling</text></g><g class="node" transform="translate(123.66225109804411,193.87422664708288)"><circle class="outline" cx="0" cy="0" r="25" fill="#57C7E3" stroke="#23b3d7" stroke-width="2px"/><text text-anchor="middle" pointer-events="none" font-family="sans-serif" dy="1.5625" font-size="25" fill="#2A2C34"/><text text-anchor="middle" pointer-events="none" x="0" y="5" font-size="10px" fill="#2A2C34" font-family="sans-serif"> Sandak…</text></g><g class="node" transform="translate(29.76243894915566,40.59896185179889)"><circle class="outline" cx="0" cy="0" r="25" fill="#F79767" stroke="#f36924" stroke-width="2px"/><text text-anchor="middle" pointer-events="none" font-family="sans-serif" dy="1.5625" font-size="25" fill="#FFFFFF"/><text text-anchor="middle" pointer-events="none" x="0" y="5" font-size="10px" fill="#FFFFFF" font-family="sans-serif"> Rimbik</text></g><g class="node" transform="translate(27.069586926319726,147.20506800320507)"><circle class="outline" cx="0" cy="0" r="25" fill="#F16667" stroke="#eb2728" stroke-width="2px"/><text text-anchor="middle" pointer-events="none" font-family="sans-serif" dy="1.5625" font-size="25" fill="#FFFFFF"/><text text-anchor="middle" pointer-events="none" x="0" y="5" font-size="10px" fill="#FFFFFF" font-family="sans-serif"> BhikeBh…</text></g></g></svg>