<svg xmlns="http://www.w3.org/2000/svg" width="395.95037841796875" height="443.069091796875" viewBox="-97.4547348022461 -118.36219787597656 395.95037841796875 443.069091796875"><title>Neo4j Graph Visualization</title><desc>Created using Neo4j (http://www.neo4j.com/)</desc><g class="layer relationships"><g class="relationship" transform="translate(81.83377904118589 295.7068813060403) rotate(278.62761585014505)"><path class="outline" fill="#A5ABB6" stroke="none" d="M 21.40063509461097,12.933012701892217 L 21.90063509461097,12.06698729810778 A 62.728400585892594 62.728400585892594 0 0 0 41.84868844079997,19.423421065627217 L 41.66669516757558,20.406720841128603 A 63.728400585892594 63.728400585892594 0 0 1 21.40063509461097,12.933012701892217 Z M 61.07088704113164,20.991113449675943 L 60.94839767090097,19.99864362435101 A 62.728400585892594 62.728400585892594 0 0 0 81.30300040506823,13.855997809025732 L 79.96206879726553,11.172361763807293 L 87.7883064452117,11.174430065022502 L 83.09090921547183,17.434179202650316 L 81.74997760766912,14.75054315743188 A 63.728400585892594 63.728400585892594 0 0 1 61.07088704113164,20.991113449675943"/><text text-anchor="middle" pointer-events="none" font-size="8px" fill="#000000" x="51.36145985722062" y="23.94234412233574" font-family="sans-serif">trek</text></g><g class="relationship" transform="translate(98.35788024280589 186.80139935278964) rotate(325.41111715306727)"><path class="outline" fill="#A5ABB6" stroke="none" d="M 24.018736134675446,-6.953439040707552 L 24.277555179777966,-5.987513214418485 A 136.0486640379624 136.0486640379624 0 0 1 34.57308883153696,-8.32215355672858 L 34.38994516130535,-9.305239715747263 A 137.0486640379624 137.0486640379624 0 0 0 24.018736134675446,-6.953439040707552 Z M 80.79568252481528,-9.956959520243004 L 80.6402184626092,-8.969117971530665 A 136.0486640379624 136.0486640379624 0 0 1 90.99725389588217,-6.924521254236113 L 90.30247941297655,-4.00608187369328 L 97.92274153096639,-5.78978735754681 L 91.92361987308966,-10.815773761626556 L 91.22884539018405,-7.8973343810837235 A 137.0486640379624 137.0486640379624 0 0 0 80.79568252481528,-9.956959520243004"/><text text-anchor="middle" pointer-events="none" font-size="8px" fill="#000000" x="57.572047119258066" y="-8.109795100347924" font-family="sans-serif">twowheeler</text></g><g class="relationship" transform="translate(198.99406347108257 117.40596207157458) rotate(276.8555893362228)"><path class="outline" fill="#A5ABB6" stroke="none" d="M 24.018736134675446,-6.953439040707552 L 24.277555179777966,-5.987513214418485 A 165.47655414059693 165.47655414059693 0 0 1 41.95791059836713,-9.703896618075362 L 41.80593663177384,-10.692281114856797 A 166.47655414059693 166.47655414059693 0 0 0 24.018736134675446,-6.953439040707552 Z M 88.25503528190728,-11.277153255731065 L 88.12799639356784,-10.28525551863845 A 165.47655414059693 165.47655414059693 0 0 1 105.89632242407812,-7.015230533397136 L 105.19307566414467,-4.098821098039489 L 112.8184855665682,-5.860389666112043 L 106.83398477065604,-10.903776447207333 L 106.1307380107226,-7.987367011849686 A 166.47655414059693 166.47655414059693 0 0 0 88.25503528190728,-11.277153255731065"/><text text-anchor="middle" pointer-events="none" font-size="8px" fill="#000000" x="65.01628107444762" y="-9.112833806812517" font-family="sans-serif">twowheeler</text></g><g class="relationship" transform="translate(215.36193475184672 -18.735536272550124) rotate(219.0907714698685)"><path class="outline" fill="#A5ABB6" stroke="none" d="M 25 0.5 L 42.83597623541455 0.5 L 42.83597623541455 -0.5 L 25 -0.5 Z M 62.17191373541455 0.5 L 80.0078899708291 0.5 L 80.0078899708291 3.5 L 87.0078899708291 0 L 80.0078899708291 -3.5 L 80.0078899708291 -0.5 L 62.17191373541455 -0.5 Z"/><text text-anchor="middle" pointer-events="none" font-size="8px" fill="#000000" x="52.50394498541455" y="3" transform="rotate(180 52.50394498541455 0)" font-family="sans-serif">trek</text></g><g class="relationship" transform="translate(128.4272373369256 -89.36220121641863) rotate(446.33883310703527)"><path class="outline" fill="#A5ABB6" stroke="none" d="M 25 0.5 L 42.576336831365815 0.5 L 42.576336831365815 -0.5 L 25 -0.5 Z M 61.912274331365815 0.5 L 79.48861116273163 0.5 L 79.48861116273163 3.5 L 86.48861116273163 0 L 79.48861116273163 -3.5 L 79.48861116273163 -0.5 L 61.912274331365815 -0.5 Z"/><text text-anchor="middle" pointer-events="none" font-size="8px" fill="#000000" x="52.244305581365815" y="3" font-family="sans-serif">trek</text></g><g class="relationship" transform="translate(81.83377904118589 295.7068813060403) rotate(278.62761585014505)"><path class="outline" fill="#A5ABB6" stroke="none" d="M 25 0.5 L 40.57011070268267 0.5 L 40.57011070268267 -0.5 L 25 -0.5 Z M 62.58182945268267 0.5 L 78.15194015536534 0.5 L 78.15194015536534 3.5 L 85.15194015536534 0 L 78.15194015536534 -3.5 L 78.15194015536534 -0.5 L 62.58182945268267 -0.5 Z"/><text text-anchor="middle" pointer-events="none" font-size="8px" fill="#000000" x="51.57597007768267" y="3" font-family="sans-serif">road</text></g><g class="relationship" transform="translate(81.83377904118589 295.7068813060403) rotate(278.62761585014505)"><path class="outline" fill="#A5ABB6" stroke="none" d="M 21.40063509461097,-12.933012701892217 L 21.90063509461097,-12.06698729810778 A 62.728400585892594 62.728400585892594 0 0 1 22.192663306859963,-12.234546534636387 L 21.697318745377785,-13.103243124597483 A 63.728400585892594 63.728400585892594 0 0 0 21.40063509461097,-12.933012701892217 Z M 81.4435873598519,-14.902610910388404 L 81.0014179077202,-14.005679376991601 A 62.728400585892594 62.728400585892594 0 0 1 81.30300040506823,-13.855997809025732 L 79.96206879726553,-11.172361763807293 L 87.7883064452117,-11.174430065022502 L 83.09090921547183,-17.434179202650316 L 81.74997760766912,-14.75054315743188 A 63.728400585892594 63.728400585892594 0 0 0 81.4435873598519,-14.902610910388404"/><text text-anchor="middle" pointer-events="none" font-size="8px" fill="#000000" x="51.36145985722062" y="-17.94234412233574" font-family="sans-serif">PublicTransport</text></g><g class="relationship" transform="translate(98.35788024280589 186.80139935278964) rotate(325.41111715306727)"><path class="outline" fill="#A5ABB6" stroke="none" d="M 24.018736134675446,6.953439040707552 L 24.277555179777966,5.987513214418485 A 136.0486640379624 136.0486640379624 0 0 0 47.96028235735223,10.133863182211314 L 47.87553872375809,11.130265970528 A 137.0486640379624 137.0486640379624 0 0 1 24.018736134675446,6.953439040707552 Z M 67.26415646548236,11.402558727458 L 67.20742759456267,10.404169106516264 A 136.0486640379624 136.0486640379624 0 0 0 90.99725389588217,6.924521254236113 L 90.30247941297655,4.00608187369328 L 97.92274153096639,5.78978735754681 L 91.92361987308966,10.815773761626556 L 91.22884539018405,7.8973343810837235 A 137.0486640379624 137.0486640379624 0 0 1 67.26415646548236,11.402558727458"/><text text-anchor="middle" pointer-events="none" font-size="8px" fill="#000000" x="57.57204711925805" y="14.109795100347924" font-family="sans-serif">trek</text></g><g class="relationship" transform="translate(198.99406347108257 117.40596207157458) rotate(276.8555893362228)"><path class="outline" fill="#A5ABB6" stroke="none" d="M 24.018736134675446,6.953439040707552 L 24.277555179777966,5.987513214418485 A 165.47655414059693 165.47655414059693 0 0 0 55.393479059137924,11.210957521953077 L 55.32269827746771,12.208449417131249 A 166.47655414059693 166.47655414059693 0 0 1 24.018736134675446,6.953439040707552 Z M 74.70438297579558,12.45249736967915 L 74.658740848556,11.453539514601658 A 165.47655414059693 165.47655414059693 0 0 0 105.89632242407812,7.015230533397136 L 105.19307566414467,4.098821098039489 L 112.8184855665682,5.860389666112043 L 106.83398477065604,10.903776447207333 L 106.1307380107226,7.987367011849686 A 166.47655414059693 166.47655414059693 0 0 1 74.70438297579558,12.45249736967915"/><text text-anchor="middle" pointer-events="none" font-size="8px" fill="#000000" x="65.01628107444762" y="15.112833806812517" font-family="sans-serif">trek</text></g><g class="relationship" transform="translate(215.36193475184672 -18.735536272550124) rotate(412.36187750811274)"><path class="outline" fill="#A5ABB6" stroke="none" d="M 21.40063509461097,12.933012701892217 L 21.90063509461097,12.06698729810778 A 40.34376121889801 40.34376121889801 0 0 0 23.231255812787353,12.802149133176293 L 22.76423788183532,13.686396978618554 A 41.34376121889801 41.34376121889801 0 0 1 21.40063509461097,12.933012701892217 Z M 58.62975630579207,15.011828591726697 L 58.229278939592405,14.09552194045662 A 40.34376121889801 40.34376121889801 0 0 0 59.61053269488603,13.460579043127405 L 58.30638926891729,10.758874039892868 L 66.13186827342807,10.86786188307278 L 61.34939059617768,17.062852380773457 L 60.04524717020894,14.361147377538918 A 41.34376121889801 41.34376121889801 0 0 1 58.62975630579207,15.011828591726697"/><text text-anchor="middle" pointer-events="none" font-size="8px" fill="#000000" x="40.56413981606156" y="20.944164461812505" font-family="sans-serif">twowh…</text></g><g class="relationship" transform="translate(269.4956284178172 51.46182915258171) rotate(192.44581892450105)"><path class="outline" fill="#A5ABB6" stroke="none" d="M 24.018736134675446,6.953439040707552 L 24.277555179777966,5.987513214418485 A 165.57679080197693 165.57679080197693 0 0 0 41.983173606587485,9.708384839578713 L 41.831287534041394,10.696782846945439 A 166.57679080197693 166.57679080197693 0 0 1 24.018736134675446,6.953439040707552 Z M 88.28048785909056,11.281449808759277 L 88.15352836076556,10.28954190689285 A 165.57679080197693 165.57679080197693 0 0 0 105.94719330061237,7.015508074575307 L 105.24392061886167,4.09910488998248 L 112.86934617828742,5.860605681255816 L 106.8848902096133,10.904045654032409 L 106.1816175278626,7.9876424694395824 A 166.57679080197693 166.57679080197693 0 0 1 88.28048785909056,11.281449808759277"/><text text-anchor="middle" pointer-events="none" font-size="8px" fill="#000000" x="65.0417001931055" y="15.116250634027494" transform="rotate(180 65.0417001931055 12.116250634027494)" font-family="sans-serif">twowheeler</text></g><g class="relationship" transform="translate(215.36193475184672 -18.735536272550124) rotate(412.36187750811274)"><path class="outline" fill="#A5ABB6" stroke="none" d="M 25 0.5 L 29.81717894185794 0.5 L 29.81717894185794 -0.5 L 25 -0.5 Z M 51.82889769185794 0.5 L 56.64607663371588 0.5 L 56.64607663371588 3.5 L 63.64607663371588 0 L 56.64607663371588 -3.5 L 56.64607663371588 -0.5 L 51.82889769185794 -0.5 Z"/><text text-anchor="middle" pointer-events="none" font-size="8px" fill="#000000" x="40.82303831685794" y="3" font-family="sans-serif">road</text></g><g class="relationship" transform="translate(215.36193475184672 -18.735536272550124) rotate(412.36187750811274)"><path class="outline" fill="#A5ABB6" stroke="none" d="M 21.40063509461097,-12.933012701892217 L 21.90063509461097,-12.06698729810778 A 40.34376121889801 40.34376121889801 0 0 1 31.169915860735294,-15.970927130073186 L 30.89967333713495,-16.933719412155938 A 41.34376121889801 41.34376121889801 0 0 0 21.40063509461097,-12.933012701892217 Z M 50.276825804496575,-17.649813632478207 L 50.07838449537141,-16.669700859970533 A 40.34376121889801 40.34376121889801 0 0 1 59.61053269488603,-13.460579043127405 L 58.30638926891729,-10.758874039892868 L 66.13186827342807,-10.86786188307278 L 61.34939059617768,-17.062852380773457 L 60.04524717020894,-14.361147377538918 A 41.34376121889801 41.34376121889801 0 0 0 50.276825804496575,-17.649813632478207"/><text text-anchor="middle" pointer-events="none" font-size="8px" fill="#000000" x="40.56413981606156" y="-14.944164461812505" font-family="sans-serif">trek</text></g><g class="relationship" transform="translate(98.35788024280589 186.80139935278964) rotate(237.2456101361517)"><path class="outline" fill="#A5ABB6" stroke="none" d="M 25 0.5 L 46.558422237846564 0.5 L 46.558422237846564 -0.5 L 25 -0.5 Z M 65.89435973784657 0.5 L 87.45278197569313 0.5 L 87.45278197569313 3.5 L 94.45278197569313 0 L 87.45278197569313 -3.5 L 87.45278197569313 -0.5 L 65.89435973784657 -0.5 Z"/><text text-anchor="middle" pointer-events="none" font-size="8px" fill="#000000" x="56.226390987846564" y="3" transform="rotate(180 56.226390987846564 0)" font-family="sans-serif">trek</text></g><g class="relationship" transform="translate(33.729277506938 86.34190089623829) rotate(327.66909979462736)"><path class="outline" fill="#A5ABB6" stroke="none" d="M 25 0.5 L 47.08076480328304 0.5 L 47.08076480328304 -0.5 L 25 -0.5 Z M 66.41670230328305 0.5 L 88.49746710656608 0.5 L 88.49746710656608 3.5 L 95.49746710656608 0 L 88.49746710656608 -3.5 L 88.49746710656608 -0.5 L 66.41670230328305 -0.5 Z"/><text text-anchor="middle" pointer-events="none" font-size="8px" fill="#000000" x="56.74873355328304" y="3" font-family="sans-serif">trek</text></g><g class="relationship" transform="translate(269.4956284178172 51.46182915258171) rotate(192.44581892450105)"><path class="outline" fill="#A5ABB6" stroke="none" d="M 24.018736134675446,-6.953439040707552 L 24.277555179777966,-5.987513214418485 A 165.57679080197693 165.57679080197693 0 0 1 55.41886790373688,-11.214585576079827 L 55.34812662347764,-12.212080273442808 A 166.57679080197693 166.57679080197693 0 0 0 24.018736134675446,-6.953439040707552 Z M 74.72979050144956,-12.456041815409776 L 74.68417905462924,-11.457082559023917 A 165.57679080197693 165.57679080197693 0 0 1 105.94719330061237,-7.015508074575307 L 105.24392061886167,-4.09910488998248 L 112.86934617828742,-5.860605681255816 L 106.8848902096133,-10.904045654032409 L 106.1816175278626,-7.9876424694395824 A 166.57679080197693 166.57679080197693 0 0 0 74.72979050144956,-12.456041815409776"/><text text-anchor="middle" pointer-events="none" font-size="8px" fill="#000000" x="65.04170019310543" y="-9.116250634027494" transform="rotate(180 65.04170019310543 -12.116250634027494)" font-family="sans-serif">trek</text></g><g class="relationship" transform="translate(81.83377904118589 295.7068813060403) rotate(214.65198941605917)"><path class="outline" fill="#A5ABB6" stroke="none" d="M 24.018736134675446,-6.953439040707552 L 24.277555179777966,-5.987513214418485 A 109.28606463187842 109.28606463187842 0 0 1 39.92218248835495,-8.977834749866958 L 39.806516436831934,-9.971122907716975 A 110.28606463187842 110.28606463187842 0 0 0 24.018736134675446,-6.953439040707552 Z M 61.8787528510007,-10.317184092471422 L 61.794282679621546,-9.320758084105947 A 109.28606463187842 109.28606463187842 0 0 1 77.52496533553217,-6.82235665745888 L 76.83973354457689,-3.9016619810737896 L 84.45412487892327,-5.710264924627394 L 78.43860772347256,-10.716616225972334 L 77.75337593251727,-7.795921549587244 A 110.28606463187842 110.28606463187842 0 0 0 61.8787528510007,-10.317184092471422"/><text text-anchor="middle" pointer-events="none" font-size="8px" fill="#000000" x="50.841792690798094" y="-7.197854374661489" transform="rotate(180 50.841792690798094 -10.197854374661489)" font-family="sans-serif">road</text></g><g class="relationship" transform="translate(98.35788024280589 186.80139935278964) rotate(516.0705427013415)"><path class="outline" fill="#A5ABB6" stroke="none" d="M 25 0.5 L 44.8267820332756 0.5 L 44.8267820332756 -0.5 L 25 -0.5 Z M 64.1627195332756 0.5 L 83.9895015665512 0.5 L 83.9895015665512 3.5 L 90.9895015665512 0 L 83.9895015665512 -3.5 L 83.9895015665512 -0.5 L 64.1627195332756 -0.5 Z"/><text text-anchor="middle" pointer-events="none" font-size="8px" fill="#000000" x="54.4947507832756" y="3" transform="rotate(180 54.4947507832756 0)" font-family="sans-serif">trek</text></g><g class="relationship" transform="translate(198.99406347108257 117.40596207157458) rotate(316.913029025349)"><path class="outline" fill="#A5ABB6" stroke="none" d="M 24.018736134675446,-6.953439040707552 L 24.277555179777966,-5.987513214418485 A 84.70624051591416 84.70624051591416 0 0 1 24.51786359368502,-6.051525721847781 L 24.26188151091778,-7.018207248154212 A 85.70624051591416 85.70624051591416 0 0 0 24.018736134675446,-6.953439040707552 Z M 65.22155806296955,-7.736602140475171 L 64.9996323958986,-6.761538553679372 A 84.70624051591416 84.70624051591416 0 0 1 65.24203775828524,-6.705992400004157 L 64.56767560345521,-3.7827688909079034 L 72.17528630531483,-5.619684623583488 L 66.1411872980586,-10.603623745465828 L 65.46682514322858,-7.680400236369574 A 85.70624051591416 85.70624051591416 0 0 0 65.22155806296955,-7.736602140475171"/><text text-anchor="middle" pointer-events="none" font-size="8px" fill="#000000" x="44.70693451658692" y="-6.360705853354247" font-family="sans-serif">twowhe…</text></g><g class="relationship" transform="translate(81.83377904118589 295.7068813060403) rotate(214.65198941605917)"><path class="outline" fill="#A5ABB6" stroke="none" d="M 24.018736134675446,6.953439040707552 L 24.277555179777966,5.987513214418485 A 109.28606463187842 109.28606463187842 0 0 0 41.24594698897745,9.123814385300648 L 41.14239377640679,10.118438300238495 A 110.28606463187842 110.28606463187842 0 0 1 24.018736134675446,6.953439040707552 Z M 60.53891385931679,10.422548069364396 L 60.46659244849189,9.425166691186377 A 109.28606463187842 109.28606463187842 0 0 0 77.52496533553217,6.82235665745888 L 76.83973354457689,3.9016619810737896 L 84.45412487892327,5.710264924627394 L 78.43860772347256,10.716616225972334 L 77.75337593251727,7.795921549587244 A 110.28606463187842 110.28606463187842 0 0 1 60.53891385931679,10.422548069364396"/><text text-anchor="middle" pointer-events="none" font-size="8px" fill="#000000" x="50.841792690798115" y="13.197854374661489" transform="rotate(180 50.841792690798115 10.197854374661489)" font-family="sans-serif">trek</text></g><g class="relationship" transform="translate(198.99406347108257 117.40596207157458) rotate(316.913029025349)"><path class="outline" fill="#A5ABB6" stroke="none" d="M 24.018736134675446,6.953439040707552 L 24.277555179777966,5.987513214418485 A 84.70624051591416 84.70624051591416 0 0 0 35.13610324602242,8.147994543866773 L 35.00547485133844,9.139425944671828 A 85.70624051591416 85.70624051591416 0 0 1 24.018736134675446,6.953439040707552 Z M 54.41018701025797,9.479766671830916 L 54.31440584547333,8.484364256486998 A 84.70624051591416 84.70624051591416 0 0 0 65.24203775828524,6.705992400004157 L 64.56767560345521,3.7827688909079034 L 72.17528630531483,5.619684623583488 L 66.1411872980586,10.603623745465828 L 65.46682514322858,7.680400236369574 A 85.70624051591416 85.70624051591416 0 0 1 54.41018701025797,9.479766671830916"/><text text-anchor="middle" pointer-events="none" font-size="8px" fill="#000000" x="44.70693451658693" y="12.360705853354247" font-family="sans-serif">trek</text></g><g class="relationship" transform="translate(-68.45473475549122 136.5390685380959) rotate(333.8377503503798)"><path class="outline" fill="#A5ABB6" stroke="none" d="M 21.40063509461097,12.933012701892217 L 21.90063509461097,12.06698729810778 A 66.54187989488992 66.54187989488992 0 0 0 42.38609407117048,19.742044607388436 L 42.19395220515946,20.72341176769379 A 67.54187989488992 67.54187989488992 0 0 1 21.40063509461097,12.933012701892217 Z M 64.26096486010262,21.367516015603798 L 64.12639072873121,20.376612486916144 A 66.54187989488992 66.54187989488992 0 0 0 85.02463964106674,13.90948587774019 L 83.6787324629332,11.228341743634639 L 91.50496048366861,11.215893151112848 L 86.81918254524479,17.484344723214257 L 85.47327536711124,14.803200589108707 A 67.54187989488992 67.54187989488992 0 0 1 64.26096486010262,21.367516015603798"/><text text-anchor="middle" pointer-events="none" font-size="8px" fill="#000000" x="53.215552396761595" y="24.453368127267467" font-family="sans-serif">road</text></g><g class="relationship" transform="translate(-68.45473475549122 136.5390685380959) rotate(333.8377503503798)"><path class="outline" fill="#A5ABB6" stroke="none" d="M 25 0.5 L 30.191492258940755 0.5 L 30.191492258940755 -0.5 L 25 -0.5 Z M 76.65633600894076 0.5 L 81.84782826788151 0.5 L 81.84782826788151 3.5 L 88.84782826788151 0 L 81.84782826788151 -3.5 L 81.84782826788151 -0.5 L 76.65633600894076 -0.5 Z"/><text text-anchor="middle" pointer-events="none" font-size="8px" fill="#000000" x="53.423914133940755" y="3" font-family="sans-serif">twowheeler</text></g><g class="relationship" transform="translate(-68.45473475549122 136.5390685380959) rotate(333.8377503503798)"><path class="outline" fill="#A5ABB6" stroke="none" d="M 21.40063509461097,-12.933012701892217 L 21.90063509461097,-12.06698729810778 A 66.54187989488992 66.54187989488992 0 0 1 43.691723181082494,-19.984172653289406 L 43.51920247864506,-20.969178545266956 A 67.54187989488992 67.54187989488992 0 0 0 21.40063509461097,-12.933012701892217 Z M 62.92363587416242,-21.53556594775661 L 62.8088617392972,-20.542174334159057 A 66.54187989488992 66.54187989488992 0 0 1 85.02463964106674,-13.90948587774019 L 83.6787324629332,-11.228341743634639 L 91.50496048366861,-11.215893151112848 L 86.81918254524479,-17.484344723214257 L 85.47327536711124,-14.803200589108707 A 67.54187989488992 67.54187989488992 0 0 0 62.92363587416242,-21.53556594775661"/><text text-anchor="middle" pointer-events="none" font-size="8px" fill="#000000" x="53.21555239676159" y="-18.453368127267453" font-family="sans-serif">trek</text></g><g class="relationship" transform="translate(-7.6618063793123685 233.8480838502632) rotate(238.0052905499436)"><path class="outline" fill="#A5ABB6" stroke="none" d="M 21.40063509461097,-12.933012701892217 L 21.90063509461097,-12.06698729810778 A 67.45931361567666 67.45931361567666 0 0 1 31.184199777178794,-16.51956919715527 L 30.821817019113055,-17.451598561851824 A 68.45931361567666 68.45931361567666 0 0 0 21.40063509461097,-12.933012701892217 Z M 76.70288619779566,-18.780931453359116 L 76.39507425545506,-17.82948423561527 A 67.45931361567666 67.45931361567666 0 0 1 85.92086254620253,-13.921874195833372 L 84.57380300674492,-11.241308845546932 L 92.40002495344716,-11.225496162146696 L 87.716941932146,-17.495961329548624 L 86.3698823926884,-14.815395979262185 A 68.45931361567666 68.45931361567666 0 0 0 76.70288619779566,-18.780931453359116"/><text text-anchor="middle" pointer-events="none" font-size="8px" fill="#000000" x="53.662102022189856" y="-18.576314955907478" transform="rotate(180 53.662102022189856 -21.576314955907478)" font-family="sans-serif">twowheeler</text></g><g class="relationship" transform="translate(-7.6618063793123685 233.8480838502632) rotate(238.0052905499436)"><path class="outline" fill="#A5ABB6" stroke="none" d="M 25 0.5 L 42.86317539458371 0.5 L 42.86317539458371 -0.5 L 25 -0.5 Z M 64.87489414458372 0.5 L 82.73806953916743 0.5 L 82.73806953916743 3.5 L 89.73806953916743 0 L 82.73806953916743 -3.5 L 82.73806953916743 -0.5 L 64.87489414458372 -0.5 Z"/><text text-anchor="middle" pointer-events="none" font-size="8px" fill="#000000" x="53.86903476958371" y="3" transform="rotate(180 53.86903476958371 0)" font-family="sans-serif">road</text></g><g class="relationship" transform="translate(-7.6618063793123685 233.8480838502632) rotate(238.0052905499436)"><path class="outline" fill="#A5ABB6" stroke="none" d="M 21.40063509461097,12.933012701892217 L 21.90063509461097,12.06698729810778 A 67.45931361567666 67.45931361567666 0 0 0 44.1358307210412,20.11833217396213 L 43.96543970213915,21.103708701324905 A 68.45931361567666 68.45931361567666 0 0 1 21.40063509461097,12.933012701892217 Z M 63.36986115825182,21.665921747882777 L 63.256807596259485,20.672332852956487 A 67.45931361567666 67.45931361567666 0 0 0 85.92086254620253,13.921874195833372 L 84.57380300674492,11.241308845546932 L 92.40002495344716,11.225496162146696 L 87.716941932146,17.495961329548624 L 86.3698823926884,14.815395979262185 A 68.45931361567666 68.45931361567666 0 0 1 63.36986115825182,21.665921747882777"/><text text-anchor="middle" pointer-events="none" font-size="8px" fill="#000000" x="53.66210202218988" y="24.576314955907478" transform="rotate(180 53.66210202218988 21.576314955907478)" font-family="sans-serif">trek</text></g></g><g class="layer nodes"><g class="node" transform="translate(81.83377904118589,295.7068813060403)"><circle class="outline" cx="0" cy="0" r="25" fill="#F79767" stroke="#f36924" stroke-width="2px"/><text text-anchor="middle" pointer-events="none" font-family="sans-serif" dy="1.5625" font-size="25" fill="#FFFFFF"/><text text-anchor="middle" pointer-events="none" x="0" y="5" font-size="10px" fill="#FFFFFF" font-family="sans-serif"> Darjeeling</text></g><g class="node" transform="translate(135.54644747207573,21.898875832324446)"><circle class="outline" cx="0" cy="0" r="25" fill="#57C7E3" stroke="#23b3d7" stroke-width="2px"/><text text-anchor="middle" pointer-events="none" font-family="sans-serif" dy="1.5625" font-size="25" fill="#2A2C34"/><text text-anchor="middle" pointer-events="none" x="0" y="5" font-size="10px" fill="#2A2C34" font-family="sans-serif"> Sandak…</text></g><g class="node" transform="translate(269.4956284178172,51.46182915258171)"><circle class="outline" cx="0" cy="0" r="25" fill="#F16667" stroke="#eb2728" stroke-width="2px"/><text text-anchor="middle" pointer-events="none" font-family="sans-serif" dy="1.5625" font-size="25" fill="#FFFFFF"/><text text-anchor="middle" pointer-events="none" x="0" y="5" font-size="10px" fill="#FFFFFF" font-family="sans-serif"> Gurdum</text></g><g class="node" transform="translate(98.35788024280589,186.80139935278964)"><circle class="outline" cx="0" cy="0" r="25" fill="#F79767" stroke="#f36924" stroke-width="2px"/><text text-anchor="middle" pointer-events="none" font-family="sans-serif" dy="1.5625" font-size="25" fill="#FFFFFF"/><text text-anchor="middle" pointer-events="none" x="0" y="5" font-size="10px" fill="#FFFFFF" font-family="sans-serif"> Rimbik</text></g><g class="node" transform="translate(198.99406347108257,117.40596207157458)"><circle class="outline" cx="0" cy="0" r="25" fill="#F16667" stroke="#eb2728" stroke-width="2px"/><text text-anchor="middle" pointer-events="none" font-family="sans-serif" dy="1.5625" font-size="25" fill="#FFFFFF"/><text text-anchor="middle" pointer-events="none" x="0" y="5" font-size="10px" fill="#FFFFFF" font-family="sans-serif"> Sirikhola</text></g><g class="node" transform="translate(215.36193475184672,-18.735536272550124)"><circle class="outline" cx="0" cy="0" r="25" fill="#F16667" stroke="#eb2728" stroke-width="2px"/><text text-anchor="middle" pointer-events="none" font-family="sans-serif" dy="1.5625" font-size="25" fill="#FFFFFF"/><text text-anchor="middle" pointer-events="none" x="0" y="5" font-size="10px" fill="#FFFFFF" font-family="sans-serif"> Rammam</text></g><g class="node" transform="translate(128.4272373369256,-89.36220121641863)"><circle class="outline" cx="0" cy="0" r="25" fill="#57C7E3" stroke="#23b3d7" stroke-width="2px"/><text text-anchor="middle" pointer-events="none" font-family="sans-serif" dy="1.5625" font-size="25" fill="#2A2C34"/><text text-anchor="middle" pointer-events="none" x="0" y="5" font-size="10px" fill="#2A2C34" font-family="sans-serif"> Sabargr…</text></g><g class="node" transform="translate(33.729277506938,86.34190089623829)"><circle class="outline" cx="0" cy="0" r="25" fill="#F16667" stroke="#eb2728" stroke-width="2px"/><text text-anchor="middle" pointer-events="none" font-family="sans-serif" dy="1.5625" font-size="25" fill="#FFFFFF"/><text text-anchor="middle" pointer-events="none" x="0" y="5" font-size="10px" fill="#FFFFFF" font-family="sans-serif"> BhikeBh…</text></g><g class="node" transform="translate(-7.6618063793123685,233.8480838502632)"><circle class="outline" cx="0" cy="0" r="25" fill="#F16667" stroke="#eb2728" stroke-width="2px"/><text text-anchor="middle" pointer-events="none" font-family="sans-serif" dy="1.5625" font-size="25" fill="#FFFFFF"/><text text-anchor="middle" pointer-events="none" x="0" y="5" font-size="10px" fill="#FFFFFF" font-family="sans-serif"> Tumbling</text></g><g class="node" transform="translate(-68.45473475549122,136.5390685380959)"><circle class="outline" cx="0" cy="0" r="25" fill="#F16667" stroke="#eb2728" stroke-width="2px"/><text text-anchor="middle" pointer-events="none" font-family="sans-serif" dy="1.5625" font-size="25" fill="#FFFFFF"/><text text-anchor="middle" pointer-events="none" x="0" y="5" font-size="10px" fill="#FFFFFF" font-family="sans-serif"> Gairibus</text></g></g></svg>